HIERARCHY
ROOT Hips
{
	OFFSET 0.000000 0.000000 0.000000 
	CHANNELS 6 Xposition Yposition Zposition Yrotation Xrotation Zrotation
	JOINT Spine
	{
		OFFSET 0.000000 0.072080 0.012321 
		CHANNELS 3 Xrotation Yrotation Zrotation
		JOINT Spine1
		{
			OFFSET 0.000000 0.126984 -0.001294 
			CHANNELS 3 Xrotation Yrotation Zrotation
			JOINT Spine2
			{
				OFFSET 0.000000 0.106559 -0.010096 
				CHANNELS 3 Xrotation Yrotation Zrotation
				JOINT Neck
				{
					OFFSET 0.000000 0.108417 -0.034017 
					CHANNELS 3 Xrotation Yrotation Zrotation
					JOINT Neck1
					{
						OFFSET 0.000000 0.033906 0.007241 
						CHANNELS 3 Xrotation Yrotation Zrotation
						JOINT Head
						{
							OFFSET 0.000000 0.031458 0.006707 
							CHANNELS 3 Xrotation Yrotation Zrotation
							End Site
							{
								OFFSET 0.000000 0.179920 0.000962 
							}
						}
					}
				}
				JOINT LeftShoulder
				{
					OFFSET 0.048002 0.079586 -0.029634 
					CHANNELS 3 Zrotation Xrotation Yrotation
					JOINT LeftArm
					{
						OFFSET 0.096243 -0.008695 -0.014012 
						CHANNELS 3 Zrotation Xrotation Yrotation
						JOINT LeftForeArm
						{
							OFFSET 0.216305 0.000000 0.000000 
							CHANNELS 3 Xrotation Zrotation Yrotation
							JOINT LeftHand
							{
								OFFSET 0.217764 0.000000 0.000000 
								CHANNELS 3 Zrotation Yrotation Xrotation
								JOINT LeftHandThumb1
								{
									OFFSET 0.018582 -0.007835 0.020476 
									CHANNELS 3 Zrotation Xrotation Yrotation
									JOINT LeftHandThumb2
									{
										OFFSET 0.026269 -0.007835 0.022186 
										CHANNELS 3 Zrotation Xrotation Yrotation
										JOINT LeftHandThumb3
										{
											OFFSET 0.035170 -0.010504 0.017018 
											CHANNELS 3 Zrotation Xrotation Yrotation
											End Site
											{
												OFFSET 0.020312 -0.007813 0.007813 
											}
										}
									}
								}
								JOINT LeftHandMiddle1
								{
									OFFSET 0.081749 0.004803 0.003358 
									CHANNELS 3 Zrotation Xrotation Yrotation
									JOINT LeftHandMiddle2
									{
										OFFSET 0.045251 0.000000 0.000000 
										CHANNELS 3 Zrotation Xrotation Yrotation
										JOINT LeftHandMiddle3
										{
											OFFSET 0.029009 0.000000 0.000000 
											CHANNELS 3 Zrotation Xrotation Yrotation
											End Site
											{
												OFFSET 0.017969 0.000000 0.000000 
											}
										}
									}
								}
								JOINT LeftHandIndex1
								{
									OFFSET 0.081207 0.004803 0.021137 
									CHANNELS 3 Zrotation Xrotation Yrotation
									JOINT LeftHandIndex2
									{
										OFFSET 0.043354 0.000000 0.000000 
										CHANNELS 3 Zrotation Xrotation Yrotation
										JOINT LeftHandIndex3
										{
											OFFSET 0.026493 0.000000 0.000000 
											CHANNELS 3 Zrotation Xrotation Yrotation
											End Site
											{
												OFFSET 0.019531 0.000000 0.000000 
											}
										}
									}
								}
								JOINT LeftHandRing1
								{
									OFFSET 0.080666 0.002509 -0.014652 
									CHANNELS 3 Zrotation Xrotation Yrotation
									JOINT LeftHandRing2
									{
										OFFSET 0.042541 0.000000 0.000000 
										CHANNELS 3 Zrotation Xrotation Yrotation
										JOINT LeftHandRing3
										{
											OFFSET 0.029009 0.000000 0.000000 
											CHANNELS 3 Zrotation Xrotation Yrotation
											End Site
											{
												OFFSET 0.015625 0.000000 0.000000 
											}
										}
									}
								}
								JOINT LeftHandPinky1
								{
									OFFSET 0.078227 -0.000612 -0.030993 
									CHANNELS 3 Zrotation Xrotation Yrotation
									JOINT LeftHandPinky2
									{
										OFFSET 0.028721 0.000000 0.000000 
										CHANNELS 3 Zrotation Xrotation Yrotation
										JOINT LeftHandPinky3
										{
											OFFSET 0.021963 0.000000 0.000000 
											CHANNELS 3 Zrotation Xrotation Yrotation
											End Site
											{
												OFFSET 0.022656 0.000000 0.000000 
											}
										}
									}
								}
							}
						}
					}
				}
				JOINT RightShoulder
				{
					OFFSET -0.047970 0.079586 -0.029634 
					CHANNELS 3 Zrotation Xrotation Yrotation
					JOINT RightArm
					{
						OFFSET -0.096274 -0.008695 -0.014012 
						CHANNELS 3 Zrotation Xrotation Yrotation
						JOINT RightForeArm
						{
							OFFSET -0.216305 0.000000 0.000000 
							CHANNELS 3 Xrotation Zrotation Yrotation
							JOINT RightHand
							{
								OFFSET -0.217764 0.000000 0.000000 
								CHANNELS 3 Zrotation Yrotation Xrotation
								JOINT RightHandThumb1
								{
									OFFSET -0.019670 -0.007318 0.019638 
									CHANNELS 3 Zrotation Xrotation Yrotation
									JOINT RightHandThumb2
									{
										OFFSET -0.025498 -0.008492 0.023179 
										CHANNELS 3 Zrotation Xrotation Yrotation
										JOINT RightHandThumb3
										{
											OFFSET -0.034504 -0.010705 0.016680 
											CHANNELS 3 Zrotation Xrotation Yrotation
											End Site
											{
												OFFSET -0.020312 -0.007813 0.007813 
											}
										}
									}
								}
								JOINT RightHandIndex1
								{
									OFFSET -0.081770 0.003825 0.021187 
									CHANNELS 3 Zrotation Xrotation Yrotation
									JOINT RightHandIndex2
									{
										OFFSET -0.042006 0.000000 0.000000 
										CHANNELS 3 Zrotation Xrotation Yrotation
										JOINT RightHandIndex3
										{
											OFFSET -0.026449 0.000000 0.000000 
											CHANNELS 3 Zrotation Xrotation Yrotation
											End Site
											{
												OFFSET -0.020312 0.000000 0.000000 
											}
										}
									}
								}
								JOINT RightHandMiddle1
								{
									OFFSET -0.084059 0.003825 0.003342 
									CHANNELS 3 Zrotation Xrotation Yrotation
									JOINT RightHandMiddle2
									{
										OFFSET -0.043881 0.000000 0.000000 
										CHANNELS 3 Zrotation Xrotation Yrotation
										JOINT RightHandMiddle3
										{
											OFFSET -0.029191 0.000000 0.000000 
											CHANNELS 3 Zrotation Xrotation Yrotation
											End Site
											{
												OFFSET -0.017969 0.000000 0.000000 
											}
										}
									}
								}
								JOINT RightHandRing1
								{
									OFFSET -0.081798 0.003030 -0.015127 
									CHANNELS 3 Zrotation Xrotation Yrotation
									JOINT RightHandRing2
									{
										OFFSET -0.042198 0.000000 0.000000 
										CHANNELS 3 Zrotation Xrotation Yrotation
										JOINT RightHandRing3
										{
											OFFSET -0.026497 0.000000 0.000000 
											CHANNELS 3 Zrotation Xrotation Yrotation
											End Site
											{
												OFFSET -0.017188 0.000000 0.000000 
											}
										}
									}
								}
								JOINT RightHandPinky1
								{
									OFFSET -0.077902 -0.000930 -0.030891 
									CHANNELS 3 Zrotation Xrotation Yrotation
									JOINT RightHandPinky2
									{
										OFFSET -0.028538 0.000000 0.000000 
										CHANNELS 3 Zrotation Xrotation Yrotation
										JOINT RightHandPinky3
										{
											OFFSET -0.021734 0.000000 0.000000 
											CHANNELS 3 Zrotation Xrotation Yrotation
											End Site
											{
												OFFSET -0.022656 0.000000 0.000000 
											}
										}
									}
								}
							}
						}
					}
				}
			}
		}
	}
	JOINT LeftUpLeg
	{
		OFFSET 0.075264 -0.025573 0.000000 
		CHANNELS 3 Xrotation Yrotation Zrotation
		JOINT LeftLeg
		{
			OFFSET 0.000000 -0.326016 -0.013516 
			CHANNELS 3 Xrotation Yrotation Zrotation
			JOINT LeftFoot
			{
				OFFSET 0.000098 -0.306172 -0.006623 
				CHANNELS 3 Xrotation Yrotation Zrotation
				JOINT LeftToeBase
				{
					OFFSET -0.001432 -0.095259 0.064705 
					CHANNELS 3 Xrotation Yrotation Zrotation
					End Site
					{
						OFFSET 0.000000 0.000000 0.079438 
					}
				}
			}
		}
	}
	JOINT RightUpLeg
	{
		OFFSET -0.075264 -0.025573 0.000000 
		CHANNELS 3 Xrotation Yrotation Zrotation
		JOINT RightLeg
		{
			OFFSET 0.000000 -0.326016 -0.013516 
			CHANNELS 3 Xrotation Yrotation Zrotation
			JOINT RightFoot
			{
				OFFSET 0.000098 -0.306172 -0.006623 
				CHANNELS 3 Xrotation Yrotation Zrotation
				JOINT RightToeBase
				{
					OFFSET -0.001432 -0.095259 0.064705 
					CHANNELS 3 Xrotation Yrotation Zrotation
					End Site
					{
						OFFSET 0.000025 0.000000 0.079438 
					}
				}
			}
		}
	}
}
MOTION
Frames: 7
Frame Time: 0.033333
0.109643 0.737553 0.638540 23.722200 -3.833900 -2.527300 5.629900 -1.326800 -0.075900 0.395300 -0.361000 0.178700 0.395700 -0.363500 0.180100 -1.669500 0.668500 0.688300 -0.000000 0.000000 -0.000000 -1.335200 8.989000 -3.379100 -18.861900 1.377600 -1.909600 -56.254101 10.592400 -11.500400 0.000000 -0.000000 -14.865400 -0.827300 -5.036800 -5.095000 8.022800 2.294000 6.150500 -7.135600 9.935100 9.068700 20.283800 -22.936399 -18.312300 -34.375500 0.003100 0.463500 -31.299500 0.002200 -0.007800 -21.364599 0.001000 -0.005500 -23.943199 0.005800 -3.988300 -29.340000 0.001900 -0.007400 -15.651300 0.000600 -0.004100 -35.722301 0.003300 2.922200 -41.485500 0.003800 -0.010000 -16.205400 0.000600 -0.004200 -31.775801 -0.189300 0.676800 -28.286699 0.001800 -0.007100 -20.214001 0.000900 -0.005200 18.465000 0.226900 -2.652600 63.148399 -0.485600 -7.707400 0.000000 0.000000 10.383400 5.191500 1.284100 15.327400 -3.825000 -2.713200 -4.257200 -3.191500 7.512400 -8.966800 -23.514400 -11.043100 25.474899 17.451700 0.068100 1.370700 40.571899 0.001900 0.005100 18.348301 0.000400 0.002500 31.194000 0.001300 -1.804100 36.973301 0.001600 0.004800 14.647400 0.000300 0.002000 39.488201 0.002000 -4.837600 32.814899 0.001300 0.004300 17.029900 0.000300 0.002300 41.681198 -0.306000 -1.796700 38.571499 0.001700 0.004900 25.775499 0.000800 0.003400 -6.642400 4.703700 -6.612100 25.472401 -7.241900 1.581500 -10.023300 -1.778200 10.313600 -4.068300 0.000000 -0.000000 -23.641199 -4.533200 -4.359500 49.086399 -3.137600 -2.010000 -2.260400 -0.227600 5.859200 -3.076100 -0.000000 0.000000 
0.117668 0.736303 0.669378 25.307699 -3.495900 -2.333200 5.567300 -1.802100 -0.096400 0.396700 -0.483300 0.161500 0.397300 -0.485300 0.163200 -1.723300 0.704700 0.655000 -0.000000 0.000000 -0.000000 -2.010100 8.983500 -3.054400 -18.850201 1.523000 -2.484800 -53.554100 11.312400 -15.631900 -0.000000 -0.000000 -18.365000 0.833100 -6.566500 -8.793200 8.022900 2.294000 6.150500 -7.117800 9.930700 9.036100 20.156099 -22.818399 -18.270700 -34.577702 0.003200 0.344100 -31.355801 0.002200 -0.007800 -21.393101 0.001000 -0.005500 -24.210600 0.005800 -4.106200 -29.339899 0.001900 -0.007400 -15.726200 0.000500 -0.004100 -35.916599 0.003400 2.799700 -41.751499 0.003800 -0.010000 -16.186800 0.000600 -0.004200 -31.802601 -0.197500 0.555300 -28.394600 0.001800 -0.007200 -20.252701 0.000900 -0.005200 18.107599 0.187900 -2.799100 64.360397 -1.642300 -10.942000 0.000000 0.000000 9.144000 6.324100 0.037600 16.456301 -3.824900 -2.713200 -4.257200 -3.826100 7.213500 -7.736000 -23.590099 -11.064200 25.606199 17.232201 0.102900 1.096700 40.317699 0.001900 0.005100 18.322701 0.000400 0.002500 30.859900 0.001200 -2.104800 36.926201 0.001600 0.004800 14.663300 0.000300 0.002000 39.490200 0.002000 -5.159700 32.534801 0.001200 0.004300 17.050400 0.000400 0.002300 41.308899 -0.391100 -2.374200 38.560200 0.001700 0.004900 25.718000 0.000800 0.003400 -3.914200 5.263700 -6.107400 25.380800 -9.528300 1.632500 -12.362700 -2.178200 10.571200 -4.677200 -0.000000 -0.000000 -25.916500 -4.304900 -5.090000 39.324600 -5.516300 -2.419000 -1.736500 -0.243400 6.574100 -2.283100 0.000000 -0.000000 
0.125902 0.733168 0.699658 26.720600 -3.028100 -1.932900 5.434300 -2.157100 -0.244700 0.383100 -0.571700 0.103900 0.384500 -0.572700 0.105600 -1.810600 0.739100 0.591700 -0.000000 0.000000 -0.000000 -2.653600 8.927100 -2.784100 -18.862499 1.696100 -3.163400 -50.898899 11.289000 -19.332500 0.000000 0.000000 -21.771999 2.266700 -7.387500 -11.371000 8.022800 2.294000 6.150500 -7.123200 9.931800 9.047200 20.086700 -22.749300 -18.246401 -34.730301 0.003200 0.231900 -31.394501 0.002200 -0.007800 -21.420799 0.001100 -0.005500 -24.433001 0.005800 -4.229000 -29.339600 0.001900 -0.007400 -15.806700 0.000600 -0.004100 -36.074699 0.003400 2.672300 -41.838100 0.003800 -0.010000 -16.187000 0.000600 -0.004200 -31.792999 -0.206400 0.430900 -28.394899 0.001800 -0.007200 -20.261999 0.000900 -0.005200 17.787901 0.154300 -2.927900 65.248802 -2.546600 -13.629800 -0.000000 -0.000000 7.722300 6.915800 -1.149300 18.097300 -3.824900 -2.713200 -4.257200 -4.554100 6.864700 -6.296700 -23.911100 -11.139700 25.991600 17.259001 0.134400 0.849500 39.854401 0.001800 0.005100 18.322201 0.000400 0.002500 30.441900 0.001200 -2.493600 36.807098 0.001600 0.004700 14.668000 0.000300 0.002000 39.480499 0.002000 -5.517200 32.279999 0.001200 0.004200 17.069201 0.000300 0.002300 40.880299 -0.475700 -2.943300 38.605999 0.001700 0.004900 25.678900 0.000800 0.003400 -1.358400 5.606300 -5.707300 25.204700 -9.935400 1.565800 -14.961300 -4.038500 10.584300 -5.560500 0.000000 -0.000000 -26.151300 -4.353600 -5.976000 25.395800 -7.675200 -3.037900 0.536500 -0.385000 7.111900 -2.046400 -0.000000 -0.000000 
0.134877 0.727671 0.729865 27.991301 -2.234500 -1.241400 4.866200 -2.380700 -0.587100 0.382700 -0.620700 0.018400 0.385500 -0.619500 0.018700 -1.927800 0.754900 0.547400 -0.000000 0.000000 -0.000000 -3.123600 8.875900 -2.790600 -18.848600 1.811200 -3.620600 -48.460499 10.911300 -22.981899 -0.000000 0.000000 -24.279100 3.499300 -8.192500 -12.661000 8.022800 2.294000 6.150500 -7.164900 9.942600 9.119500 19.927799 -22.583200 -18.188101 -34.890202 0.003200 0.176100 -31.436100 0.002200 -0.007800 -21.431101 0.001100 -0.005500 -24.647800 0.005900 -4.251300 -29.339001 0.001900 -0.007400 -15.692100 0.000600 -0.004100 -36.215401 0.003400 2.581800 -42.045399 0.003900 -0.010100 -16.160999 0.000600 -0.004200 -31.833700 -0.206400 0.429100 -28.396799 0.001800 -0.007200 -20.252300 0.000900 -0.005200 17.710501 0.101800 -3.146800 65.629402 -3.314300 -15.739400 -0.000000 -0.000000 6.384800 7.187900 -2.535200 20.689400 -3.824900 -2.713200 -4.257200 -5.115900 6.591400 -5.163700 -24.028700 -11.170100 26.171801 17.436800 0.160900 0.638900 39.802101 0.001800 0.005100 18.289900 0.000400 0.002500 30.224400 0.001300 -2.783500 36.696602 0.001600 0.004700 14.669700 0.000300 0.002000 39.606400 0.002000 -5.751400 32.190201 0.001200 0.004200 17.028200 0.000400 0.002300 40.601299 -0.547100 -3.417000 38.642899 0.001700 0.004900 25.643400 0.000800 0.003400 0.619100 5.628700 -5.590400 25.495300 -9.969000 1.433000 -17.773001 -5.672400 10.495000 -5.501100 -0.000000 -0.000000 -26.498800 -4.500200 -7.064800 12.044400 -7.884200 -3.506100 5.841800 -1.340200 7.012900 -2.674600 -0.000000 -0.000000 
0.145091 0.717812 0.762634 28.968300 -1.549800 -0.495400 3.913100 -2.430100 -1.027700 0.582600 -0.616800 0.023400 0.587300 -0.613600 0.019500 -2.014200 0.769000 0.514400 -0.000000 0.000000 -0.000000 -3.564800 8.963000 -2.985800 -18.954800 1.867900 -3.815900 -46.556000 10.104300 -26.424801 0.000000 -0.000000 -25.389099 4.230600 -9.014900 -12.324700 8.022800 2.294000 6.150500 -7.253400 9.965500 9.272900 19.731100 -22.366899 -18.112400 -34.976501 0.003200 0.304200 -31.474899 0.002200 -0.007800 -21.409901 0.001000 -0.005500 -24.723000 0.005900 -4.112600 -29.338100 0.001900 -0.007400 -15.729900 0.000600 -0.004100 -36.183601 0.003400 2.654300 -42.275398 0.003900 -0.010100 -16.118401 0.000600 -0.004200 -31.805901 -0.196300 0.568700 -28.440701 0.001800 -0.007200 -20.207100 0.000900 -0.005200 17.689800 0.078700 -3.246200 65.557503 -3.791400 -17.479700 -0.000000 -0.000000 5.489800 7.409600 -4.494400 23.650200 -3.824900 -2.713200 -4.257200 -5.308800 6.496500 -4.769900 -23.596001 -11.079700 25.776199 17.678900 0.171800 0.550000 39.083698 0.001800 0.005000 18.260599 0.000400 0.002500 30.263599 0.001300 -2.909600 36.624100 0.001600 0.004700 14.677200 0.000300 0.002000 39.682499 0.002000 -5.806000 32.145599 0.001200 0.004200 17.057301 0.000300 0.002300 40.360699 -0.586300 -3.667200 38.638302 0.001700 0.004900 25.641199 0.000800 0.003400 2.122800 5.677000 -5.438200 27.449200 -9.837600 1.357200 -21.198799 -7.106500 10.205400 -6.072200 -0.000000 -0.000000 -29.514700 -4.909300 -8.831300 5.809200 -7.374900 -2.612600 0.046400 -0.948300 8.576500 -3.162600 0.000000 -0.000000 
0.155366 0.712288 0.795530 29.874500 -1.307100 -0.125200 3.669600 -2.591000 -1.001200 0.618800 -0.660800 0.055400 0.620000 -0.657900 0.050400 -2.029400 0.806000 0.517000 -0.000000 0.000000 -0.000000 -3.967700 9.314000 -3.130800 -18.981300 1.902000 -3.943000 -45.814098 8.942000 -29.015900 -0.000000 -0.000000 -25.376699 5.374900 -9.235800 -11.647800 8.022800 2.294000 6.150500 -7.234900 9.960900 9.240400 19.661400 -22.305401 -18.090799 -34.922298 0.003200 0.299000 -31.480801 0.002200 -0.007900 -21.385300 0.001000 -0.005500 -24.719400 0.005900 -4.099200 -29.336800 0.001900 -0.007400 -15.857000 0.000600 -0.004100 -36.096199 0.003400 2.662600 -42.237400 0.003900 -0.010100 -16.145000 0.000600 -0.004200 -31.786699 -0.193300 0.609100 -28.517599 0.001800 -0.007200 -20.219601 0.000900 -0.005200 17.616301 0.118600 -3.080200 65.159698 -4.105900 -19.020201 0.000000 0.000000 5.019600 8.199100 -6.573800 26.508900 -3.824900 -2.713200 -4.257200 -4.824600 6.733500 -5.753600 -22.296801 -10.788300 24.470100 18.086399 0.172800 0.546000 39.167000 0.001800 0.005000 18.308701 0.000400 0.002500 30.428699 0.001200 -2.868800 36.638401 0.001600 0.004700 14.705900 0.000300 0.002000 39.538898 0.002000 -5.834100 32.179501 0.001200 0.004200 17.095100 0.000400 0.002300 40.189499 -0.570700 -3.545200 38.565601 0.001700 0.004900 25.660101 0.000800 0.003400 5.411200 5.810400 -4.962000 26.194599 -9.578000 1.496100 -21.968399 -8.495800 9.194800 -7.692500 0.000000 -0.000000 -33.324299 -5.558800 -10.651500 5.836800 -3.089000 -0.296300 -3.968700 -0.635600 10.074200 -4.690000 0.000000 -0.000000 
0.164899 0.707173 0.829472 30.745600 -1.280300 -0.101300 3.738600 -2.906800 -0.838700 0.624600 -0.749000 0.117300 0.623700 -0.747200 0.112000 -2.064500 0.854100 0.596700 -0.000000 0.000000 -0.000000 -4.337000 9.842600 -2.994900 -18.727900 1.944100 -4.177800 -46.196800 7.726600 -30.313700 -0.000000 0.000000 -24.963499 6.552900 -8.859000 -11.508900 8.022800 2.294000 6.150500 -7.216300 9.955900 9.208400 19.712601 -22.360201 -18.109900 -34.786900 0.003200 0.172900 -31.427099 0.002200 -0.007800 -21.487101 0.001000 -0.005500 -24.457800 0.005900 -4.257700 -29.334900 0.001900 -0.007400 -15.866000 0.000600 -0.004100 -36.110199 0.003400 2.561800 -42.109299 0.003900 -0.010100 -16.189100 0.000600 -0.004200 -31.723700 -0.209300 0.385800 -28.392000 0.001800 -0.007100 -20.287901 0.000900 -0.005200 17.650000 0.140200 -2.995800 64.453003 -4.124800 -19.946899 -0.000000 -0.000000 4.807200 9.330600 -7.818900 28.836901 -3.825000 -2.713200 -4.257200 -3.624900 7.310700 -8.126600 -19.749001 -10.202400 21.954599 18.703199 0.157500 0.640800 39.658901 0.001800 0.005000 18.400700 0.000400 0.002500 31.035500 0.001200 -2.655900 36.761398 0.001600 0.004700 14.706100 0.000300 0.002000 39.187698 0.002000 -5.609100 32.253899 0.001200 0.004200 17.136299 0.000400 0.002300 40.191799 -0.487400 -2.967900 38.393398 0.001700 0.004900 25.728800 0.000800 0.003400 8.731900 5.625100 -4.424200 24.993601 -9.302500 2.280400 -21.418699 -9.000000 8.321900 -10.789200 0.000000 -0.000000 -34.072399 -5.035000 -10.470300 5.678000 2.202700 -0.283400 -3.926200 -0.634900 9.855800 -5.679500 0.000000 0.000000 
